<?xml version="1.0" encoding="utf-8"?>
<!-- Generator: Adobe Illustrator 22.0.1, SVG Export Plug-In . SVG Version: 6.00 Build 0)  -->
<svg version="1.1" xmlns="http://www.w3.org/2000/svg" xmlns:xlink="http://www.w3.org/1999/xlink" x="0px" y="0px"
	 viewBox="0 0 100 97" style="enable-background:new 0 0 100 97;" xml:space="preserve">
<style type="text/css">
	.st0{fill:#51357D;}
	.st1{fill:url(#SVGID_1_);}
	.st2{fill:url(#SVGID_2_);}
	.st3{fill:url(#SVGID_3_);}
	.st4{fill:url(#SVGID_4_);}
	.st5{fill:url(#SVGID_5_);}
	.st6{fill:url(#SVGID_6_);}
	.st7{fill:url(#SVGID_7_);}
	.st8{fill:url(#SVGID_8_);}
	.st9{fill:url(#SVGID_9_);}
	.st10{fill:url(#SVGID_10_);}
	.st11{fill:#271A38;}
	.st12{fill:#FFFFFF;}
</style>
<g id="Слой_3">
	<path class="st0" d="M1.7,44.4c-0.1,1.3-0.2,2.6-0.2,3.9c0,26.7,21.6,48.3,48.3,48.3S98.1,75,98.1,48.4c0-1.3-0.1-2.6-0.2-3.9H1.7z
		"/>
</g>
<g id="Слой_1">
	
		<linearGradient id="SVGID_1_" gradientUnits="userSpaceOnUse" x1="49.7859" y1="96.1128" x2="49.7859" y2="-6.2588" gradientTransform="matrix(1 0 0 -1 0 98)">
		<stop  offset="0" style="stop-color:#FFFF21"/>
		<stop  offset="1" style="stop-color:#FF0CC6"/>
	</linearGradient>
	<path class="st1" d="M14.6,81.4c0.5,0.5,1,1.1,1.6,1.6h67.3c0.5-0.5,1.1-1,1.6-1.6H14.6z"/>
	
		<linearGradient id="SVGID_2_" gradientUnits="userSpaceOnUse" x1="49.7804" y1="124.9905" x2="49.7804" y2="-8.708" gradientTransform="matrix(1 0 0 -1 0 98)">
		<stop  offset="0" style="stop-color:#FFFF21"/>
		<stop  offset="1" style="stop-color:#FF0CC6"/>
	</linearGradient>
	<path class="st2" d="M29.5,92.2c0.9,0.4,1.7,0.7,2.6,1.1h35.4c0.9-0.3,1.7-0.7,2.6-1.1H29.5L29.5,92.2z"/>
	
		<linearGradient id="SVGID_3_" gradientUnits="userSpaceOnUse" x1="49.7794" y1="96.1128" x2="49.7794" y2="-6.2588" gradientTransform="matrix(1 0 0 -1 0 98)">
		<stop  offset="0" style="stop-color:#FFFF21"/>
		<stop  offset="1" style="stop-color:#FF0CC6"/>
	</linearGradient>
	<path class="st3" d="M21.2,87.3c0.6,0.4,1.1,0.8,1.7,1.2h53.7c0.6-0.4,1.2-0.8,1.7-1.2H21.2z"/>
	
		<linearGradient id="SVGID_4_" gradientUnits="userSpaceOnUse" x1="49.7832" y1="96.0628" x2="49.7832" y2="-6.0539" gradientTransform="matrix(1 0 0 -1 0 98)">
		<stop  offset="0" style="stop-color:#FFFF21"/>
		<stop  offset="1" style="stop-color:#FF0CC6"/>
	</linearGradient>
	<path class="st4" d="M97.9,44.4C96,19.6,75.2,0.1,49.8,0.1S3.6,19.6,1.6,44.4H97.9z"/>
	
		<linearGradient id="SVGID_5_" gradientUnits="userSpaceOnUse" x1="49.7788" y1="96.1137" x2="49.7788" y2="-6.2588" gradientTransform="matrix(1 0 0 -1 0 98)">
		<stop  offset="0" style="stop-color:#FFFF21"/>
		<stop  offset="1" style="stop-color:#FF0CC6"/>
	</linearGradient>
	<path class="st5" d="M1.5,48.3c0,0.6,0,1.1,0,1.7H98c0-0.6,0-1.1,0-1.7c0-0.7,0-1.4,0-2.1H23l-0.6,0.7l-0.2-0.7H1.5
		C1.5,46.9,1.5,47.6,1.5,48.3z"/>
	
		<linearGradient id="SVGID_6_" gradientUnits="userSpaceOnUse" x1="49.7921" y1="96.1137" x2="49.7921" y2="-6.2588" gradientTransform="matrix(1 0 0 -1 0 98)">
		<stop  offset="0" style="stop-color:#FFFF21"/>
		<stop  offset="1" style="stop-color:#FF0CC6"/>
	</linearGradient>
	<path class="st6" d="M2.4,57.9C2.6,59,2.9,60,3.2,61h93.2c0.3-1,0.5-2,0.7-3.1H2.4L2.4,57.9z"/>
	
		<linearGradient id="SVGID_7_" gradientUnits="userSpaceOnUse" x1="49.778" y1="96.1137" x2="49.778" y2="-6.2588" gradientTransform="matrix(1 0 0 -1 0 98)">
		<stop  offset="0" style="stop-color:#FFFF21"/>
		<stop  offset="1" style="stop-color:#FF0CC6"/>
	</linearGradient>
	<path class="st7" d="M1.6,52c0.1,1.2,0.2,2.3,0.4,3.4h95.5c0.2-1.1,0.3-2.3,0.4-3.4H1.6z"/>
	
		<linearGradient id="SVGID_8_" gradientUnits="userSpaceOnUse" x1="49.7901" y1="96.1137" x2="49.7901" y2="-6.2588" gradientTransform="matrix(1 0 0 -1 0 98)">
		<stop  offset="0" style="stop-color:#FFFF21"/>
		<stop  offset="1" style="stop-color:#FF0CC6"/>
	</linearGradient>
	<path class="st8" d="M4,63.8c0.3,0.9,0.6,1.8,1,2.7h89.5c0.4-0.9,0.7-1.8,1-2.7H4z"/>
	
		<linearGradient id="SVGID_9_" gradientUnits="userSpaceOnUse" x1="49.7784" y1="96.1137" x2="49.7784" y2="-6.2588" gradientTransform="matrix(1 0 0 -1 0 98)">
		<stop  offset="0" style="stop-color:#FFFF21"/>
		<stop  offset="1" style="stop-color:#FF0CC6"/>
	</linearGradient>
	<path class="st9" d="M6.4,69.7c0.4,0.8,0.8,1.6,1.2,2.3h84.3c0.4-0.8,0.8-1.5,1.2-2.3H6.4z"/>
	
		<linearGradient id="SVGID_10_" gradientUnits="userSpaceOnUse" x1="49.7696" y1="96.1137" x2="49.7696" y2="-6.2588" gradientTransform="matrix(1 0 0 -1 0 98)">
		<stop  offset="0" style="stop-color:#FFFF21"/>
		<stop  offset="1" style="stop-color:#FF0CC6"/>
	</linearGradient>
	<path class="st10" d="M9.8,75.5c0.5,0.6,0.9,1.3,1.4,1.9h77.1c0.5-0.6,1-1.3,1.4-1.9H9.8z"/>
	<path class="st11" d="M20.3,55.5l-7.4-33.1h4.4l5.2,24.4l5-24.4h4.2l-7.3,33.1H20.3L20.3,55.5z M32.3,55.5l7.1-33.1h4.5l7.1,33.1
		h-4.4L45,47.2h-6.8l-0.9,4.9L32.3,55.5L32.3,55.5z M38.9,43.9h5.5L41.6,29L38.9,43.9L38.9,43.9z M54.3,55.5V22.4h8.2
		c2,0,3.6,0.4,4.8,1.1c1.2,0.7,2,1.8,2.6,3.1c0.5,1.4,0.8,3,0.8,4.9c0,1.7-0.3,3.2-0.9,4.5c-0.6,1.3-1.5,2.3-2.7,3
		c-1.2,0.7-2.7,1-4.5,1h-3.7v15.4L54.3,55.5C54.3,55.5,54.3,55.5,54.3,55.5z M58.9,36.8H61c1.3,0,2.4-0.1,3.2-0.4
		c0.8-0.3,1.3-0.8,1.6-1.6c0.3-0.7,0.5-1.8,0.5-3.2c0-1.6-0.1-2.8-0.3-3.6c-0.2-0.8-0.7-1.4-1.4-1.8c-0.7-0.3-1.9-0.5-3.4-0.5h-2.2
		L58.9,36.8C58.9,36.8,58.9,36.8,58.9,36.8z M73.9,55.5V22.4h12.9v3.4h-8.2v10.9h6.7v3.3h-6.7v12h8.3v3.4H73.9z"/>
	<path class="st12" d="M42.9,43.6c-0.4,0.7-0.9,1.4-1.3,2.1c-0.6,0.9-1.3,1.9-2,3.1c-0.7,1.2-1.5,2.3-2.3,3.5
		c-0.8,1.1-1.5,2.2-2.2,3.4c-0.7,1.1-1.3,1.9-1.8,2.7c-0.5,0.7-0.8,1.2-1,1.5c0.5-0.2,1.2-0.5,1.9-1c0.7-0.4,1.4-0.8,1.9-1
		c0.6-0.2,1.1-0.2,1.7,0c0.6,0.2,1,0.6,1.4,1.2c0.3,0.4,0.5,0.8,0.6,1.2c0.2,0.4,0.2,0.9,0.2,1.3c0,0.1,0,0.3-0.1,0.4
		c-0.1,0.2-0.3,0.6-0.5,1.2c-0.3,0.6-0.6,1.2-1,1.9c-0.4,0.7-0.8,1.4-1.2,2.2c-0.4,0.8-0.8,1.5-1.1,2.2c-0.3,0.7-0.7,1.4-1.2,2.3
		c0.3-0.1,0.9-0.4,1.8-0.9c1-0.5,2-1,3.1-1.7c1.3-0.6,2.7-1.4,4.2-2.2c-1.5,1.2-2.9,2.3-4.1,3.3c-0.5,0.4-1,0.8-1.5,1.2
		c-0.5,0.4-1,0.7-1.4,1.1c-0.4,0.3-0.8,0.6-1,0.8c-0.3,0.2-0.5,0.3-0.5,0.3c-1.4,0.6-2.7,0.3-4.1-0.7c-0.5-0.4-0.9-0.8-1-1.2
		c-0.1-0.3-0.1-0.8,0.1-1.5c0.2-0.8,0.5-1.5,0.9-2c0.4-0.6,0.9-1.2,1.4-1.8c0.5-0.7,1-1.3,1.4-2c0.4-0.7,0.9-1.3,1.4-2.1
		c0,0-0.1-0.1-0.1-0.1c0,0-0.1-0.1-0.1-0.1c-1.4,0.2-2.7,0.6-3.8,1.4c-1.1,0.8-2.1,1.6-2.9,2.5c-0.8,0.9-1.5,1.8-2.1,2.7
		c-0.4,0.6-0.8,1.3-1.2,1.9c0,0.1-0.1,0.2-0.2,0.3c-0.1,0.1-0.3,0.3-0.7,0.4c-0.3,0.1-0.7,0.2-1.3,0.3c-0.5,0-1.2,0-2-0.2
		c-0.1,0-0.3-0.1-0.5-0.4c-0.3-0.3-0.4-0.4-0.5-0.5c0.1-0.3,0.1-0.5,0.2-0.5c0-0.1,0-0.1,0-0.2c3.1-4.7,6.1-9.4,9.2-14.1
		c1.2-1.8,2.3-3.5,3.5-5.3c1-1.6,2.1-3.2,3.1-4.8c1-1.4,1.7-2.6,2.4-3.6c0.6-1,1-1.6,1.2-1.8c0.8-1,1.7-0.9,2.5,0.4
		c0.3,0.4,0.5,0.8,0.7,1.2C43.1,42.6,43.1,43.2,42.9,43.6L42.9,43.6z"/>
	<path class="st12" d="M54.9,71.9c-0.3,0.2-0.7,0.4-1,0.6c-0.4,0.2-0.8,0.4-1.2,0.5c-0.4,0.3-0.8,0.3-1.2,0
		c-0.3-0.3-0.7-0.5-1.1-0.7c-0.4-0.2-0.8-0.4-1.1-0.7c-0.5-0.4-0.6-1-0.2-1.7c0.1-0.3,0.3-0.6,0.4-0.8c0.1-0.3,0.2-0.6,0.3-0.8
		l-0.2-0.2l-1.1,0.7c-0.7,0.4-1.4,0.9-2,1.3c-0.7,0.4-1.3,0.9-1.9,1.4c-0.3,0.3-0.7,0.4-1,0.5c-0.3,0-0.6,0-0.9-0.1
		c-0.3-0.1-0.5-0.2-0.8-0.4c-0.3-0.2-0.5-0.3-0.8-0.5c-0.3-0.1-0.5-0.3-0.7-0.5c-0.3-0.3-0.5-0.6-0.7-1c-0.2-0.4-0.3-0.8-0.3-1.3
		c0-0.5,0-1,0.3-1.5c0.2-0.5,0.6-1.2,1.2-2.1c0.6-0.9,1.1-1.9,1.8-2.8c0.6-0.9,1.2-1.8,1.8-2.7c0.6-0.9,1-1.5,1.3-1.8
		c0.1-0.1,0.3-0.2,0.5-0.3c0.2-0.1,0.4-0.1,0.6-0.1c0.3,0.1,0.7,0.2,1,0.3l1,0.3c0.6,0.2,1,0.5,1.1,1c0.1,0.5,0,1-0.4,1.5
		c-0.6,0.8-1.2,1.6-1.7,2.4c-0.6,0.8-1.1,1.6-1.7,2.5c-0.1,0.1-0.2,0.2-0.4,0.5c-0.2,0.3-0.3,0.5-0.5,0.8c-0.2,0.3-0.3,0.6-0.5,0.8
		c-0.2,0.3-0.3,0.5-0.3,0.6c1.4-0.2,2.7-0.7,3.8-1.4c1.1-0.8,2.1-1.6,2.9-2.5c0.8-0.9,1.4-1.7,1.9-2.5c0.5-0.8,0.8-1.3,1-1.4
		c0.3-0.3,0.6-0.5,1.2-0.5c0.5-0.1,1.1-0.1,1.6,0c0.5,0.1,1,0.2,1.5,0.4c0.4,0.2,0.7,0.3,0.8,0.5c0.1,0.2,0.1,0.4,0.1,0.6
		c0,0.2,0,0.4-0.1,0.6c-0.1,0.2-0.2,0.5-0.5,0.9c-0.3,0.4-0.6,0.9-1,1.4c-0.4,0.6-0.8,1.2-1.2,1.9c-0.4,0.6-0.7,1.3-1,1.9
		c-0.3,0.5-0.5,1-0.7,1.3c-0.2,0.4-0.3,0.8-0.5,1.3c-0.2,0.5-0.3,0.9-0.5,1.4l1-0.6c0.9-0.5,1.7-1.1,2.5-1.8l2.3-1.9
		c0.3-0.3,0.6-0.5,0.8-0.8c0.3-0.3,0.5-0.5,0.8-0.7c0.1-0.1,0.2-0.1,0.3,0c0.1,0.1,0.1,0.2,0,0.3c-0.2,0.3-0.4,0.6-0.7,0.9
		c-0.3,0.3-0.5,0.6-0.8,0.8c-0.3,0.4-0.7,0.8-1.1,1.1c-0.3,0.3-0.7,0.7-1.1,1c-0.4,0.3-0.8,0.7-1.2,1.1
		C55.9,71.3,55.4,71.6,54.9,71.9z"/>
	<path class="st12" d="M79.5,42.1c0.3,0.6,0.3,1.2,0,1.7c-0.3,0.5-0.7,1.3-1.4,2.2c-0.7,1-1.4,2.1-2.1,3.2c-0.8,1.2-1.5,2.3-2.3,3.5
		c-0.8,1.2-1.5,2.1-2,2.9c0.5,0.1,0.9,0.3,1.1,0.7c0.2,0.4,0.5,0.7,0.8,1c0.3,0.6,0.6,1.2,0.7,1.8c0.1,0.6,0.2,1.3,0.2,2.1
		c0,0.8-0.2,1.7-0.5,2.7c-0.7,1.2-1.5,2.3-2.4,3.4c-0.8,1-1.5,1.7-2.1,2.2c0.5-0.2,1.2-0.6,2.1-1.1c1-0.5,1.9-1,2.9-1.6
		c1.1-0.6,2.4-1.3,3.7-2c-1.5,1.2-2.9,2.3-4.1,3.3c-0.5,0.4-1,0.8-1.5,1.2c-0.5,0.4-1,0.7-1.4,1.1c-0.4,0.3-0.8,0.6-1,0.8
		c-0.3,0.2-0.5,0.3-0.5,0.3c-1,0.4-1.9,0.4-2.8,0c-0.9,0.4-1.9,0.5-3,0.4c-1.4-0.1-2.6-0.6-3.7-1.6c-0.5,0.1-1.1,0-1.9-0.2
		c-0.1,0-0.3-0.2-0.5-0.4c-0.3-0.2-0.4-0.4-0.5-0.5c0-0.1,0.1-0.3,0.2-0.5c0-0.1,0-0.1,0-0.2c3.3-4.9,6.3-9.4,8.9-13.4
		c1.1-1.7,2.3-3.4,3.4-5.1c1.1-1.6,2.1-3.2,3-4.5c0.9-1.4,1.7-2.5,2.3-3.4c0.6-0.9,1-1.5,1.2-1.7c0.8-1,1.6-0.9,2.5,0.4
		c0.1,0.2,0.2,0.4,0.3,0.6C79.3,41.7,79.4,41.9,79.5,42.1L79.5,42.1z M63.7,67.9c0.4,0.2,1,0.1,1.7-0.2c0.7-0.3,1.5-0.8,2.2-1.4
		c0.7-0.6,1.4-1.3,2.1-2.1c0.6-0.7,1.1-1.5,1.5-2.3c0.3-0.7,0.5-1.4,0.4-2.1c-0.1-0.6-0.5-1.1-1.2-1.4c-0.3-0.1-0.6,0-1.1,0.4
		c-0.5,0.4-1,0.9-1.6,1.6c-0.6,0.7-1.2,1.5-1.7,2.2c-0.5,0.8-1,1.5-1.5,2.3c-0.4,0.7-0.7,1.4-0.9,1.9C63.4,67.5,63.4,67.8,63.7,67.9
		z"/>
</g>
</svg>
