<svg width="295" height="260" fill="none" xmlns="http://www.w3.org/2000/svg"><path fill="#35c1e8" d="M0 0h295v260H0z"/><path fill="url(#paint5_linear)" d="M0 0h295v260H0z"/><mask id="a" style="mask-type:alpha" maskUnits="userSpaceOnUse" x="0" y="0" width="295" height="260"><path fill="#35c1e8" d="M0 0h295v260H0z"/><path fill="url(#paint1_linear)" d="M0 0h295v260H0z"/></mask><g mask="url(#a)"><circle cx="220" cy="188" r="107" transform="rotate(75 220 188)" fill="#2de3bf"/><circle cx="220" cy="188" r="107" transform="rotate(75 220 188)" fill="url(#paint5_linear)"/><circle cx="220" cy="188" r="107" transform="rotate(270 220 188)" fill="url(#paint5_linear)"/><circle cx="220" cy="188" r="106.5" transform="rotate(75 220 188)" stroke="url(#paint5_linear)" stroke-opacity=".5"/></g><defs><linearGradient id="paint0_linear" x1="333.27" y1="-30.086" x2="-25.123" y2="15.013" gradientUnits="userSpaceOnUse"><stop stop-color="#FDC430"/><stop offset="1" stop-color="#FC8800"/></linearGradient><linearGradient id="paint1_linear" x1="333.27" y1="-30.086" x2="-25.123" y2="15.013" gradientUnits="userSpaceOnUse"><stop stop-color="#FCA013"/><stop offset=".956" stop-color="#FCA416"/></linearGradient><linearGradient id="paint2_linear" x1="354.762" y1="56.237" x2="93.867" y2="85.172" gradientUnits="userSpaceOnUse"><stop stop-color="#DB6161"/><stop offset="1" stop-color="#D248BC"/></linearGradient><linearGradient id="paint3_linear" x1="220" y1="81" x2="220" y2="295" gradientUnits="userSpaceOnUse"><stop stop-color="#F17B56"/><stop offset="1" stop-color="#FFC834"/></linearGradient><linearGradient id="paint4_linear" x1="220" y1="81" x2="220" y2="295" gradientUnits="userSpaceOnUse"><stop stop-color="#F17B56"/><stop offset="1" stop-color="#FFC834"/></linearGradient><linearGradient xmlns="http://www.w3.org/2000/svg" id="paint5_linear" x1="220" y1="81" x2="220" y2="295" gradientUnits="userSpaceOnUse"><stop stop-color="#2eb0c7"/><stop offset="1" stop-color="#2de3bf"/></linearGradient></defs></svg>
